<?xml version="1.0" encoding="UTF-8"?>
<svg id="Calque_1" data-name="Calque 1" xmlns="http://www.w3.org/2000/svg" viewBox="0 0 146.55 177.36">
  <defs>
    <style>
      .cls-1 {
        fill: #4cbbb8;
        stroke-width: 0px;
      }
    </style>
  </defs>
  <path id="Tracé_17" data-name="Tracé 17" class="cls-1" d="m109.74,46.6c-.38-1.7-.87-3.38-1.44-5.03C99.83,16.89,72.97,3.75,48.29,12.21c-24.68,8.46-37.82,35.33-29.36,60,.56,1.65,1.21,3.28,1.95,4.86l-.25.09c-8.23,2.82-12.61,11.78-9.79,20s11.78,12.61,20,9.79l89.36-30.65c8.23-2.82,12.61-11.78,9.79-20-2.82-8.23-11.78-12.61-20-9.79l-.25.09ZM39.2,115.2l54.83,53.94c3.39,3.3,8.81,3.22,12.11-.17,1.27-1.3,2.09-2.98,2.34-4.78l10.19-76.24-79.48,27.26Z"/>
</svg>