<svg xmlns="http://www.w3.org/2000/svg" xmlns:xlink="http://www.w3.org/1999/xlink" viewBox="0,0,256,256" width="32px" height="32px"><g fill="#4cbbb8" fill-rule="nonzero" stroke="none" stroke-width="1" stroke-linecap="butt" stroke-linejoin="miter" stroke-miterlimit="10" stroke-dasharray="" stroke-dashoffset="0" font-family="none" font-weight="none" font-size="none" text-anchor="none" style="mix-blend-mode: normal"><g transform="scale(16,16)"><path d="M8,3c-1.90234,0 -3.62891,0.76563 -4.89062,2h-3.10937c0.34766,0.40234 0.74219,1.02734 0.91406,1.49219c-0.5625,0.6875 -0.91406,1.55469 -0.91406,2.50781c0,2.20313 1.79688,4 4,4c1.30859,0 2.46094,-0.64062 3.19141,-1.61719l0.80859,1.61719l0.80859,-1.61719c0.73047,0.97656 1.88281,1.61719 3.19141,1.61719c2.20313,0 4,-1.79687 4,-4c0,-0.94141 -0.34375,-1.79687 -0.89062,-2.48437c0.24609,-0.58594 0.50391,-1 0.89063,-1.51562h-3.11328c-1.26172,-1.23437 -2.98437,-2 -4.88672,-2zM8,4c1.26563,0 2.43359,0.39453 3.40234,1.0625c-1.92187,0.28906 -3.40234,1.94141 -3.40234,3.9375c0,-2 -1.48437,-3.64844 -3.40625,-3.9375c0.96875,-0.67187 2.14063,-1.0625 3.40625,-1.0625zM4,6c1.66406,0 3,1.33594 3,3c0,1.66406 -1.33594,3 -3,3c-1.66406,0 -3,-1.33594 -3,-3c0,-1.66406 1.33594,-3 3,-3zM12,6c1.66406,0 3,1.33594 3,3c0,1.66406 -1.33594,3 -3,3c-1.66406,0 -3,-1.33594 -3,-3c0,-1.66406 1.33594,-3 3,-3zM4,8c-0.55078,0 -1,0.44922 -1,1c0,0.55078 0.44922,1 1,1c0.55078,0 1,-0.44922 1,-1c0,-0.55078 -0.44922,-1 -1,-1zM12,8c-0.55078,0 -1,0.44922 -1,1c0,0.55078 0.44922,1 1,1c0.55078,0 1,-0.44922 1,-1c0,-0.55078 -0.44922,-1 -1,-1z"></path></g></g></svg>