<?xml version="1.0" encoding="UTF-8"?>
<svg id="Calque_1" data-name="Calque 1" xmlns="http://www.w3.org/2000/svg" viewBox="0 0 216.51 149.11">
  <defs>
    <style>
      .cls-1 {
        fill: #fff;
        stroke-width: 0px;
      }
    </style>
  </defs>
  <g id="Groupe_105" data-name="Groupe 105">
    <path id="Tracé_6" data-name="Tracé 6" class="cls-1" d="m93.27,24.48c.08-.66.11-1.33.09-2,0-9.99-8.11-18.08-18.1-18.08-9.98,0-18.07,8.1-18.08,18.08,0,.7.05,1.35.09,2h-.09c-3.34,0-6.05,2.71-6.05,6.05s2.71,6.05,6.05,6.05h36.08c3.34,0,6.05-2.71,6.05-6.05s-2.71-6.05-6.05-6.05h0Zm-33.99,16.04l13.16,26.32c.81,1.62,2.77,2.28,4.39,1.47.64-.32,1.15-.83,1.47-1.47l13.16-26.32h-32.18Z"/>
    <g id="Groupe_7" data-name="Groupe 7">
      <path id="Tracé_7" data-name="Tracé 7" class="cls-1" d="m124.01,43.41l-2.51.14c-.81.04-1.62.14-2.42.28-2.04.43-3.92,1.41-5.44,2.84-1.59,1.36-2.28,3.5-1.77,5.53.16.95.67,1.8,1.44,2.37,1.16.93,2.74,1.4,4.7,1.3,1.7-.02,3.4-.21,5.07-.56.76-.27,1.59-.24,2.33.09.78.4,1.44,1.02,1.91,1.77.88,1.35,1.49,3.21,1.86,5.49.33,2.28.19,4.14-.37,5.63-.47,1.21-1.21,1.95-2.19,2.19-3.3,1.17-6.78,1.74-10.28,1.67-3.45.03-6.88-.67-10.04-2.05-3.82-1.65-7.04-4.45-9.21-8-2.14-3.53-2.98-7.53-2.56-12.04.74-7.11,3.58-12.69,8.46-16.69,4.88-4,11.02-5.63,18.27-4.84,1.28.19,2.43.87,3.21,1.91.93,1.16,1.67,3.12,2.28,5.95.6,2.84.23,4.88-1.07,6.23-.42.5-1.03.78-1.67.79Z"/>
      <path id="Tracé_8" data-name="Tracé 8" class="cls-1" d="m149.63,57.03c3.3-.05,6.32-.14,9.02-.28s4.23.05,4.74.56c.51.42.88,2.23,1.12,5.44s.14,5.53-.28,6.98c-.19.6-1.67,1.12-4.46,1.49-3.11.43-6.25.7-9.39.79-3.49.14-6.79.19-10,.09s-5.25-.37-6.23-.79c-.56-.23-1.02-1.77-1.4-4.6-.37-2.84-.65-6.18-.88-9.95s-.33-7.67-.37-11.67c-.05-3.95,0-7.21.09-9.67-.02-1.26.09-2.52.33-3.77.23-1.16.56-1.86,1.07-2.14.47-.28,2.14-.51,5.02-.74,2.88-.19,5.95-.33,9.3-.37,3.3-.05,6.42,0,9.25.19,2.84.14,4.46.47,4.88.88.51.42.79,2.05.88,4.93s-.09,5.07-.51,6.51c-.23.7-1.53,1.12-4,1.26s-5.35.28-8.6.42c0,.26,0,.53.05.79,0,.33.05.56.05.79,1.76,0,3.52.16,5.25.47.33.09.65.65.98,1.67.32,1.11.54,2.25.65,3.39.14,1.13.14,2.27,0,3.39-.14,1.02-.47,1.63-.98,1.67-.67.16-1.36.25-2.05.28-.98.05-2.09.14-3.3.19v.84c-.16.3-.24.64-.23.98Z"/>
      <path id="Tracé_9" data-name="Tracé 9" class="cls-1" d="m33.52,113.44l-2.51.14c-.81.04-1.62.14-2.42.28-2.04.43-3.92,1.41-5.44,2.84-1.59,1.36-2.28,3.5-1.77,5.53.16.95.67,1.8,1.44,2.37,1.16.93,2.74,1.4,4.7,1.3,1.7-.02,3.4-.21,5.07-.56.76-.27,1.59-.24,2.33.09.78.4,1.44,1.02,1.91,1.77.88,1.35,1.49,3.21,1.86,5.49.33,2.28.19,4.14-.37,5.63-.47,1.21-1.21,1.95-2.19,2.19-3.3,1.17-6.78,1.74-10.28,1.67-3.45.03-6.88-.67-10.04-2.05-3.82-1.65-7.04-4.45-9.21-8-2.14-3.53-2.98-7.53-2.56-12.04.74-7.11,3.58-12.69,8.46-16.69,4.88-4,11.02-5.63,18.27-4.84,1.28.19,2.43.87,3.21,1.91.93,1.16,1.67,3.12,2.28,5.95.6,2.84.23,4.88-1.07,6.23-.43.48-1.03.76-1.67.79Z"/>
      <path id="Tracé_10" data-name="Tracé 10" class="cls-1" d="m71.6,123.9c1.79,1.47,3.49,3.04,5.12,4.7,1.44,1.53,2.19,2.65,2.23,3.44,0,.56-.33,1.35-.93,2.46-.64,1.14-1.37,2.23-2.19,3.26-.84,1.07-1.63,2.05-2.37,2.84-.74.84-1.3,1.21-1.58,1.21-1.26.23-3.02-.37-5.39-1.91s-4.28-2.56-5.72-3.02c-1.4-.42-2.19-.28-2.28.56.06,1.05-.07,2.11-.37,3.12-.28.74-1.21,1.16-2.79,1.35-1.81.19-3.91.28-6.23.33-1.49.05-2.98-.01-4.46-.19-.44-.1-.83-.36-1.07-.74-.37-.51-.79-2.88-1.21-7.07s-.79-8.74-1.02-13.62-.37-9.39-.33-13.49.33-6.32.88-6.65c2.09-1.16,4.84-2,8.32-2.51,3.45-.51,6.96-.42,10.37.28,3.38.67,6.55,2.14,9.25,4.28,2.74,2.14,4.37,5.3,5.02,9.49.74,5.49-.33,9.49-3.26,11.9Zm-14.32-5.39c1.28-.08,2.48-.64,3.35-1.58.74-.76,1.16-1.78,1.16-2.84-.02-1.02-.52-1.97-1.35-2.56-.88-.74-2.33-.98-4.19-.79-1.53.19-2.19,1.53-1.86,4.14s1.3,3.81,2.88,3.63Z"/>
      <path id="Tracé_11" data-name="Tracé 11" class="cls-1" d="m98.99,127.06c3.3-.05,6.32-.14,9.02-.28s4.23.05,4.74.56c.51.42.88,2.23,1.12,5.44.23,3.21.14,5.53-.28,6.98-.19.6-1.67,1.12-4.46,1.49-3.11.43-6.25.7-9.39.79-3.49.14-6.79.19-10,.09s-5.25-.37-6.23-.79c-.56-.23-1.02-1.77-1.4-4.6-.37-2.84-.65-6.18-.88-9.95s-.33-7.67-.37-11.67c-.05-3.95,0-7.21.09-9.67-.02-1.26.09-2.52.33-3.77.23-1.16.56-1.86,1.07-2.14.47-.28,2.14-.51,5.02-.74,2.88-.19,5.95-.33,9.3-.37,3.3-.05,6.42,0,9.25.19,2.84.14,4.46.47,4.88.88.51.42.79,2.05.88,4.93.09,2.88-.09,5.07-.51,6.51-.23.7-1.53,1.12-4,1.26s-5.35.28-8.6.42c0,.26,0,.53.05.79,0,.33.05.56.05.79,1.76,0,3.52.16,5.25.47.33.09.65.65.98,1.67.32,1.11.54,2.25.65,3.39.14,1.13.14,2.27,0,3.39-.14,1.02-.47,1.63-.98,1.67-.67.16-1.36.25-2.05.28-.98.05-2.09.14-3.3.19v.84c-.16.3-.24.64-.23.98Z"/>
      <path id="Tracé_12" data-name="Tracé 12" class="cls-1" d="m116.43,141.25c-.37-.37-.57-.87-.56-1.4-.05-1.86.28-4.6.98-8.32.7-3.72,1.53-7.53,2.56-11.53,1.02-4,2.09-7.77,3.26-11.25s2.14-5.95,3.02-7.39c.33-.56,1.35-1.07,3.02-1.49,1.81-.48,3.66-.79,5.53-.93,1.93-.19,3.88-.19,5.81,0,1.86.19,3.16.6,3.91,1.3,1.07,1.02,2.33,3.26,3.77,6.74,1.44,3.49,2.88,7.25,4.28,11.35,1.4,4.09,2.65,8,3.72,11.76,1.07,3.77,1.81,6.42,2.19,8,.23,1.16.19,1.95-.23,2.37-.42.47-1.07.74-2.09.93-2.06.33-4.14.54-6.23.65-1.55.14-3.1.17-4.65.09-.25-.05-.48-.15-.7-.28-.7-.42-1.35-1.63-2-3.63s-1.26-3.35-1.86-4.09c-.37-.43-.88-.71-1.44-.79l-4.65-.05c-1.44.05-2.42.51-2.84,1.44-.56,1.21-1.21,2.51-1.95,4-.74,1.44-1.26,2.37-1.58,2.7-.19.24-.48.4-.79.42-.79.19-2.6.23-5.53.14-2.88.05-4.51-.28-4.93-.74Zm18.46-25.16c-.82.99-1.45,2.13-1.86,3.35-.6,1.58-.84,2.6-.65,3.07.28.84,1.53,1.21,3.67,1.12,2.19-.09,3.35-.6,3.53-1.58.09-.6-.47-1.95-1.72-4.05-1.21-2.05-2.23-2.7-2.98-1.91Z"/>
      <path id="Tracé_13" data-name="Tracé 13" class="cls-1" d="m185.44,113.95c1.86-2.79,3.72-5.44,5.44-8,1.36-2.07,2.92-4,4.65-5.77.6-.56,1.72-.98,3.44-1.26,1.77-.27,3.56-.39,5.35-.37,1.68-.02,3.36.12,5.02.42,1.49.28,2.37.65,2.6,1.12.37.84.65,3.3.84,7.39s.33,8.51.33,13.25-.09,9.16-.33,13.21-.6,6.46-1.12,7.21c-.42.47-2.33.74-5.81.88s-5.91.05-7.3-.23c-.56-.09-1.07-1.77-1.58-4.93-.47-3.16-.79-6.37-.98-9.63-.37.42-1.07,1.12-2.05,2.14s-2.05,2.09-3.16,3.16-2.19,2.05-3.26,2.88c-1.02.84-1.81,1.26-2.28,1.26-.51,0-1.26-.42-2.23-1.21s-2.05-1.72-3.12-2.74-2.09-2.05-3.02-3.02-1.58-1.67-1.95-2.05c-.23,3.02-.56,6.14-1.02,9.25s-.93,4.74-1.49,4.93c-1.02.26-2.07.38-3.12.37-1.4.05-2.79.05-4.23-.05-1.28-.04-2.55-.16-3.81-.37-1.12-.19-1.77-.37-1.91-.6-.51-.74-.88-3.16-1.16-7.3-.28-4.14-.42-8.6-.42-13.39s.05-9.25.23-13.35c.19-4.09.47-6.46.84-7.07.28-.47,1.21-.84,2.7-1.07,1.66-.29,3.34-.43,5.02-.42,1.76,0,3.51.13,5.25.37,1.67.28,2.84.7,3.44,1.26,1.73,1.78,3.3,3.71,4.7,5.77,1.81,2.46,3.63,5.16,5.49,7.95Z"/>
    </g>
  </g>
</svg>