<?xml version="1.0" encoding="UTF-8"?>
<svg id="Calque_1" data-name="Calque 1" xmlns="http://www.w3.org/2000/svg" xmlns:xlink="http://www.w3.org/1999/xlink" viewBox="0 0 927.15 77.62">
  <defs>
    <style>
      .cls-1 {
        clip-path: url(#clippath-2);
      }

      .cls-2 {
        clip-path: url(#clippath-6);
      }

      .cls-3 {
        fill: none;
      }

      .cls-3, .cls-4 {
        stroke-width: 0px;
      }

      .cls-5 {
        clip-path: url(#clippath-7);
      }

      .cls-6 {
        clip-path: url(#clippath-1);
      }

      .cls-7 {
        clip-path: url(#clippath-4);
      }

      .cls-4 {
        fill: #fff;
      }

      .cls-8 {
        clip-path: url(#clippath-9);
      }

      .cls-9 {
        clip-path: url(#clippath);
      }

      .cls-10 {
        clip-path: url(#clippath-3);
      }

      .cls-11 {
        clip-path: url(#clippath-8);
      }

      .cls-12 {
        clip-path: url(#clippath-5);
      }

      .cls-13 {
        clip-path: url(#clippath-10);
      }
    </style>
    <clipPath id="clippath">
      <rect class="cls-3" x="10.83" y="27.77" width="44.05" height="28.41" transform="translate(-18.65 28.22) rotate(-37)"/>
    </clipPath>
    <clipPath id="clippath-1">
      <rect class="cls-3" x="96.98" y="27.77" width="44.05" height="28.41" transform="translate(-1.3 80.06) rotate(-37)"/>
    </clipPath>
    <clipPath id="clippath-2">
      <rect class="cls-3" x="183.12" y="27.77" width="44.05" height="28.41" transform="translate(16.04 131.9) rotate(-37)"/>
    </clipPath>
    <clipPath id="clippath-3">
      <rect class="cls-3" x="269.27" y="27.77" width="44.05" height="28.41" transform="translate(33.38 183.74) rotate(-37)"/>
    </clipPath>
    <clipPath id="clippath-4">
      <rect class="cls-3" x="355.41" y="27.77" width="44.05" height="28.41" transform="translate(50.73 235.57) rotate(-37)"/>
    </clipPath>
    <clipPath id="clippath-5">
      <rect class="cls-3" x="441.55" y="27.77" width="44.05" height="28.41" transform="translate(68.07 287.41) rotate(-37)"/>
    </clipPath>
    <clipPath id="clippath-6">
      <rect class="cls-3" x="527.7" y="27.77" width="44.05" height="28.41" transform="translate(85.41 339.25) rotate(-37)"/>
    </clipPath>
    <clipPath id="clippath-7">
      <rect class="cls-3" x="613.84" y="27.77" width="44.05" height="28.41" transform="translate(102.75 391.09) rotate(-37)"/>
    </clipPath>
    <clipPath id="clippath-8">
      <rect class="cls-3" x="699.99" y="27.77" width="44.05" height="28.41" transform="translate(120.1 442.93) rotate(-37)"/>
    </clipPath>
    <clipPath id="clippath-9">
      <rect class="cls-3" x="786.13" y="27.77" width="44.05" height="28.41" transform="translate(137.44 494.76) rotate(-37)"/>
    </clipPath>
    <clipPath id="clippath-10">
      <rect class="cls-3" x="872.27" y="27.77" width="44.05" height="28.41" transform="translate(154.78 546.6) rotate(-37)"/>
    </clipPath>
  </defs>
  <g id="Groupe_49" data-name="Groupe 49">
    <g id="Groupe_11" data-name="Groupe 11">
      <g class="cls-9">
        <g id="Groupe_2" data-name="Groupe 2">
          <g id="Groupe_1" data-name="Groupe 1">
            <path id="Tracé_1" data-name="Tracé 1" class="cls-4" d="m54.9,35c1.89,4.24-.02,9.2-4.26,11.09-1.37.61-2.89.84-4.38.67-1.32,4.45-6,6.98-10.45,5.66-.9-.27-1.74-.68-2.5-1.22-1.34,1.21-3.04,1.97-4.84,2.14-2.31,4.02-7.45,5.4-11.47,3.09-4.02-2.31-5.4-7.45-3.09-11.47.39-.68.87-1.3,1.44-1.84-.8-4.57,2.27-8.92,6.84-9.72.62-.11,1.25-.15,1.88-.11.33-1.38,1.56-2.77,3.33-3.56,1.89-.84,3.87-.77,5.12.06,1.9-4.23,6.87-6.12,11.1-4.21,1.88.85,3.39,2.36,4.23,4.25.04.08.07.16.1.24,3.05.26,5.71,2.16,6.95,4.95"/>
          </g>
        </g>
      </g>
    </g>
    <g id="Groupe_12" data-name="Groupe 12">
      <g class="cls-6">
        <g id="Groupe_2-2" data-name="Groupe 2-2">
          <g id="Groupe_1-2" data-name="Groupe 1-2">
            <path id="Tracé_1-2" data-name="Tracé 1-2" class="cls-4" d="m141.05,35c1.89,4.24-.02,9.2-4.26,11.09-1.37.61-2.89.84-4.38.67-1.32,4.45-6,6.98-10.45,5.66-.9-.27-1.74-.68-2.5-1.22-1.34,1.21-3.04,1.97-4.84,2.14-2.31,4.02-7.45,5.4-11.47,3.09-4.02-2.31-5.4-7.45-3.09-11.47.39-.68.87-1.3,1.44-1.84-.8-4.57,2.27-8.92,6.84-9.72.62-.11,1.25-.15,1.88-.11.33-1.38,1.56-2.77,3.33-3.56,1.89-.84,3.87-.77,5.12.06,1.9-4.23,6.87-6.12,11.1-4.21,1.88.85,3.39,2.36,4.23,4.25.04.08.07.16.1.24,3.05.26,5.71,2.16,6.95,4.95"/>
          </g>
        </g>
      </g>
    </g>
    <g id="Groupe_13" data-name="Groupe 13">
      <g class="cls-1">
        <g id="Groupe_2-3" data-name="Groupe 2-3">
          <g id="Groupe_1-3" data-name="Groupe 1-3">
            <path id="Tracé_1-3" data-name="Tracé 1-3" class="cls-4" d="m227.19,35c1.89,4.24-.02,9.2-4.26,11.09-1.37.61-2.89.84-4.38.67-1.32,4.45-6,6.98-10.45,5.66-.9-.27-1.74-.68-2.5-1.22-1.34,1.21-3.04,1.97-4.84,2.14-2.31,4.02-7.45,5.4-11.47,3.09-4.02-2.31-5.4-7.45-3.09-11.47.39-.68.87-1.3,1.44-1.84-.8-4.57,2.27-8.92,6.84-9.72.62-.11,1.25-.15,1.88-.11.33-1.38,1.56-2.77,3.33-3.56,1.89-.84,3.87-.77,5.12.06,1.9-4.23,6.87-6.12,11.1-4.21,1.88.85,3.39,2.36,4.23,4.25.04.08.07.16.1.24,3.05.26,5.71,2.16,6.95,4.95"/>
          </g>
        </g>
      </g>
    </g>
    <g id="Groupe_14" data-name="Groupe 14">
      <g class="cls-10">
        <g id="Groupe_2-4" data-name="Groupe 2-4">
          <g id="Groupe_1-4" data-name="Groupe 1-4">
            <path id="Tracé_1-4" data-name="Tracé 1-4" class="cls-4" d="m313.33,35c1.89,4.24-.02,9.2-4.26,11.09-1.37.61-2.89.84-4.38.67-1.32,4.45-6,6.98-10.45,5.66-.9-.27-1.74-.68-2.5-1.22-1.34,1.21-3.04,1.97-4.84,2.14-2.31,4.02-7.45,5.4-11.47,3.09-4.02-2.31-5.4-7.45-3.09-11.47.39-.68.87-1.3,1.44-1.84-.8-4.57,2.27-8.92,6.84-9.72.62-.11,1.25-.15,1.88-.11.33-1.38,1.56-2.77,3.33-3.56,1.89-.84,3.87-.77,5.12.06,1.9-4.23,6.87-6.12,11.1-4.21,1.88.85,3.39,2.36,4.23,4.25.04.08.07.16.1.24,3.05.26,5.71,2.16,6.95,4.95"/>
          </g>
        </g>
      </g>
    </g>
    <g id="Groupe_15" data-name="Groupe 15">
      <g class="cls-7">
        <g id="Groupe_2-5" data-name="Groupe 2-5">
          <g id="Groupe_1-5" data-name="Groupe 1-5">
            <path id="Tracé_1-5" data-name="Tracé 1-5" class="cls-4" d="m399.48,35c1.89,4.24-.02,9.2-4.26,11.09-1.37.61-2.89.84-4.38.67-1.32,4.45-6,6.98-10.45,5.66-.9-.27-1.74-.68-2.5-1.22-1.34,1.21-3.04,1.97-4.84,2.14-2.31,4.02-7.45,5.4-11.47,3.09-4.02-2.31-5.4-7.45-3.09-11.47.39-.68.87-1.3,1.44-1.84-.8-4.57,2.27-8.92,6.84-9.72.62-.11,1.25-.15,1.88-.11.33-1.38,1.56-2.77,3.33-3.56,1.89-.84,3.87-.77,5.12.06,1.9-4.23,6.87-6.12,11.1-4.21,1.88.85,3.39,2.36,4.23,4.25.04.08.07.16.1.24,3.05.26,5.71,2.16,6.95,4.95"/>
          </g>
        </g>
      </g>
    </g>
    <g id="Groupe_16" data-name="Groupe 16">
      <g class="cls-12">
        <g id="Groupe_2-6" data-name="Groupe 2-6">
          <g id="Groupe_1-6" data-name="Groupe 1-6">
            <path id="Tracé_1-6" data-name="Tracé 1-6" class="cls-4" d="m485.62,35c1.89,4.24-.02,9.2-4.26,11.09-1.37.61-2.89.84-4.38.67-1.32,4.45-6,6.98-10.45,5.66-.9-.27-1.74-.68-2.5-1.22-1.34,1.21-3.04,1.97-4.84,2.14-2.31,4.02-7.45,5.4-11.47,3.09-4.02-2.31-5.4-7.45-3.09-11.47.39-.68.87-1.3,1.44-1.84-.8-4.57,2.27-8.92,6.84-9.72.62-.11,1.25-.15,1.88-.11.33-1.38,1.56-2.77,3.33-3.56,1.89-.84,3.87-.77,5.12.06,1.9-4.23,6.87-6.12,11.1-4.21,1.88.85,3.39,2.36,4.23,4.25.04.08.07.16.1.24,3.05.26,5.71,2.16,6.95,4.95"/>
          </g>
        </g>
      </g>
    </g>
    <g id="Groupe_17" data-name="Groupe 17">
      <g class="cls-2">
        <g id="Groupe_2-7" data-name="Groupe 2-7">
          <g id="Groupe_1-7" data-name="Groupe 1-7">
            <path id="Tracé_1-7" data-name="Tracé 1-7" class="cls-4" d="m571.77,35c1.89,4.24-.02,9.2-4.26,11.09-1.37.61-2.89.84-4.38.67-1.32,4.45-6,6.98-10.45,5.66-.9-.27-1.74-.68-2.5-1.22-1.34,1.21-3.04,1.97-4.84,2.14-2.31,4.02-7.45,5.4-11.47,3.09-4.02-2.31-5.4-7.45-3.09-11.47.39-.68.87-1.3,1.44-1.84-.8-4.57,2.27-8.92,6.84-9.72.62-.11,1.25-.15,1.88-.11.33-1.38,1.56-2.77,3.33-3.56,1.89-.84,3.87-.77,5.12.06,1.9-4.23,6.87-6.12,11.1-4.21,1.88.85,3.39,2.36,4.23,4.25.04.08.07.16.1.24,3.05.26,5.71,2.16,6.95,4.95"/>
          </g>
        </g>
      </g>
    </g>
    <g id="Groupe_49-2" data-name="Groupe 49-2">
      <g class="cls-5">
        <g id="Groupe_2-8" data-name="Groupe 2-8">
          <g id="Groupe_1-8" data-name="Groupe 1-8">
            <path id="Tracé_1-8" data-name="Tracé 1-8" class="cls-4" d="m657.91,35c1.89,4.24-.02,9.2-4.26,11.09-1.37.61-2.89.84-4.38.67-1.32,4.45-6,6.98-10.45,5.66-.9-.27-1.74-.68-2.5-1.22-1.34,1.21-3.04,1.97-4.84,2.14-2.31,4.02-7.45,5.4-11.47,3.09-4.02-2.31-5.4-7.45-3.09-11.47.39-.68.87-1.3,1.44-1.84-.8-4.57,2.27-8.92,6.84-9.72.62-.11,1.25-.15,1.88-.11.33-1.38,1.56-2.77,3.33-3.56,1.89-.84,3.87-.77,5.12.06,1.9-4.23,6.87-6.12,11.1-4.21,1.88.85,3.39,2.36,4.23,4.25.04.08.07.16.1.24,3.05.26,5.71,2.16,6.95,4.95"/>
          </g>
        </g>
      </g>
    </g>
    <g id="Groupe_50" data-name="Groupe 50">
      <g class="cls-11">
        <g id="Groupe_2-9" data-name="Groupe 2-9">
          <g id="Groupe_1-9" data-name="Groupe 1-9">
            <path id="Tracé_1-9" data-name="Tracé 1-9" class="cls-4" d="m744.05,35c1.89,4.24-.02,9.2-4.26,11.09-1.37.61-2.89.84-4.38.67-1.32,4.45-6,6.98-10.45,5.66-.9-.27-1.74-.68-2.5-1.22-1.34,1.21-3.04,1.97-4.84,2.14-2.31,4.02-7.45,5.4-11.47,3.09-4.02-2.31-5.4-7.45-3.09-11.47.39-.68.87-1.3,1.44-1.84-.8-4.57,2.27-8.92,6.84-9.72.62-.11,1.25-.15,1.88-.11.33-1.38,1.56-2.77,3.33-3.56,1.89-.84,3.87-.77,5.12.06,1.9-4.23,6.87-6.12,11.1-4.21,1.88.85,3.39,2.36,4.23,4.25.04.08.07.16.1.24,3.05.26,5.71,2.16,6.95,4.95"/>
          </g>
        </g>
      </g>
    </g>
    <g id="Groupe_51" data-name="Groupe 51">
      <g class="cls-8">
        <g id="Groupe_2-10" data-name="Groupe 2-10">
          <g id="Groupe_1-10" data-name="Groupe 1-10">
            <path id="Tracé_1-10" data-name="Tracé 1-10" class="cls-4" d="m830.2,35c1.89,4.24-.02,9.2-4.26,11.09-1.37.61-2.89.84-4.38.67-1.32,4.45-6,6.98-10.45,5.66-.9-.27-1.74-.68-2.5-1.22-1.34,1.21-3.04,1.97-4.84,2.14-2.31,4.02-7.45,5.4-11.47,3.09-4.02-2.31-5.4-7.45-3.09-11.47.39-.68.87-1.3,1.44-1.84-.8-4.57,2.27-8.92,6.84-9.72.62-.11,1.25-.15,1.88-.11.33-1.38,1.56-2.77,3.33-3.56,1.89-.84,3.87-.77,5.12.06,1.9-4.23,6.87-6.12,11.1-4.21,1.88.85,3.39,2.36,4.23,4.25.04.08.07.16.1.24,3.05.26,5.71,2.16,6.95,4.95"/>
          </g>
        </g>
      </g>
    </g>
    <g id="Groupe_52" data-name="Groupe 52">
      <g class="cls-13">
        <g id="Groupe_2-11" data-name="Groupe 2-11">
          <g id="Groupe_1-11" data-name="Groupe 1-11">
            <path id="Tracé_1-11" data-name="Tracé 1-11" class="cls-4" d="m916.34,35c1.89,4.24-.02,9.2-4.26,11.09-1.37.61-2.89.84-4.38.67-1.32,4.45-6,6.98-10.45,5.66-.9-.27-1.74-.68-2.5-1.22-1.34,1.21-3.04,1.97-4.84,2.14-2.31,4.02-7.45,5.4-11.47,3.09-4.02-2.31-5.4-7.45-3.09-11.47.39-.68.87-1.3,1.44-1.84-.8-4.57,2.27-8.92,6.84-9.72.62-.11,1.25-.15,1.88-.11.33-1.38,1.56-2.77,3.33-3.56,1.89-.84,3.87-.77,5.12.06,1.9-4.23,6.87-6.12,11.1-4.21,1.88.85,3.39,2.36,4.23,4.25.04.08.07.16.1.24,3.05.26,5.71,2.16,6.95,4.95"/>
          </g>
        </g>
      </g>
    </g>
  </g>
</svg>