<?xml version="1.0" encoding="UTF-8"?>
<svg id="Calque_1" data-name="Calque 1" xmlns="http://www.w3.org/2000/svg" xmlns:xlink="http://www.w3.org/1999/xlink" viewBox="0 0 556.22 173.91">
  <defs>
    <style>
      .cls-1 {
        fill: #4cbbb8;
      }

      .cls-1, .cls-2, .cls-3 {
        stroke-width: 0px;
      }

      .cls-2 {
        fill: none;
      }

      .cls-4 {
        clip-path: url(#clippath-1);
      }

      .cls-3 {
        fill: #fff;
      }

      .cls-5 {
        clip-path: url(#clippath);
      }
    </style>
    <clipPath id="clippath">
      <rect class="cls-2" x="502.79" y="77.37" width="27.18" height="60.06" transform="translate(10.96 258.18) rotate(-28.36)"/>
    </clipPath>
    <clipPath id="clippath-1">
      <rect class="cls-2" x="520.5" y="61.11" width="20.88" height="46.13" transform="translate(261.17 549.16) rotate(-68.89)"/>
    </clipPath>
  </defs>
  <g id="Groupe_55" data-name="Groupe 55">
    <g id="Groupe_58" data-name="Groupe 58">
      <g class="cls-5">
        <g id="Groupe_5" data-name="Groupe 5">
          <g id="Groupe_4" data-name="Groupe 4">
            <path id="Tracé_3" data-name="Tracé 3" class="cls-1" d="m499.61,82.68c.96-.03,1.92.02,2.87.15,2.94.48,5.8,1.35,8.51,2.58,7.01,3.06,13.4,7.96,16.95,14.8.79,1.53,1.49,3.11,2.12,4.72,3.42,8.6,5.64,19.52-.38,27.55-.27.36-.56.72-.86,1.06-1.78,2.01-3.88,4.14-6.77,4.03-2.14-.1-4.18-.92-5.78-2.34-1.52-1.44-1.94-3.57-2.2-5.56-.52-4.07-.54-8.18-1.15-12.25-.99-6.37-2.92-12.56-5.74-18.35-1.33-2.75-2.82-5.42-4.45-8.01-1.3-2.07-3.73-5.23-4.66-6.43-.37-.47-.3-1.15.16-1.53.4-.29.89-.44,1.38-.42"/>
          </g>
        </g>
      </g>
    </g>
  </g>
  <g id="Groupe_55-2" data-name="Groupe 55">
    <g id="Groupe_58-2" data-name="Groupe 58">
      <g class="cls-4">
        <g id="Groupe_5-2" data-name="Groupe 5">
          <g id="Groupe_4-2" data-name="Groupe 4">
            <path id="Tracé_3-2" data-name="Tracé 3" class="cls-1" d="m508.81,78.11c.55-.5,1.13-.95,1.75-1.34,1.96-1.19,4.06-2.11,6.26-2.74,5.62-1.71,11.8-2.04,17.29.18,1.23.5,2.42,1.08,3.59,1.69,6.29,3.31,13.03,8.58,13.53,16.28.02.35.03.7.02,1.05-.04,2.06-.2,4.36-1.94,5.74-1.3,1.01-2.9,1.54-4.54,1.52-1.6-.08-2.92-1.11-4.06-2.15-2.34-2.12-4.4-4.51-6.79-6.58-3.76-3.23-7.97-5.87-12.51-7.85-2.15-.94-4.35-1.76-6.6-2.46-1.79-.56-4.79-1.19-5.93-1.43-.45-.09-.75-.52-.67-.97.09-.37.3-.7.59-.94"/>
          </g>
        </g>
      </g>
    </g>
  </g>
  <path class="cls-1" d="m0,0c7.41,28.31,26.25,52.69,52.59,66.69-.02,1.08-.01,2.17,0,3.26,0,0,0,0,0,0,1.12,58.53,49.06,105.06,107.08,103.94,25.82-.46,50.57-10.54,69.47-28.29,10.34,15.69,32.84,26.3,58.73,25.8,24.21-.47,45.1-10.55,55.66-25.01,14.92,7.32,31.34,10.95,47.93,10.6,48.17-.94,89.54-34.79,100.38-82.15,32.9-12.87,56.61-41.24,64.36-74.84H0Z"/>
  <g id="Groupe_5-3" data-name="Groupe 5">
    <g id="Groupe_4-3" data-name="Groupe 4">
      <path id="Tracé_3-3" data-name="Tracé 3" class="cls-3" d="m91.55,108.83c-.34.95-.6,1.93-.77,2.93-.46,3.1-.51,6.25-.14,9.36.82,8.02,3.68,15.99,9.41,21.75,1.28,1.29,2.65,2.49,4.05,3.64,7.52,6.19,17.76,11.91,27.75,8.45.45-.16.9-.33,1.34-.53,2.58-1.14,5.4-2.57,6.22-5.5.59-2.17.41-4.48-.49-6.54-.96-1.98-2.96-3.09-4.87-3.99-3.92-1.83-8.03-3.17-11.91-5.08-6.07-3.03-11.65-6.96-16.56-11.65-2.33-2.22-4.54-4.57-6.61-7.03-1.66-1.97-4.05-5.42-4.95-6.74-.35-.52-1.06-.67-1.59-.33-.42.31-.73.75-.87,1.25"/>
    </g>
  </g>
</svg>