<?xml version="1.0" encoding="UTF-8"?>
<svg id="Calque_1" data-name="Calque 1" xmlns="http://www.w3.org/2000/svg" xmlns:xlink="http://www.w3.org/1999/xlink" viewBox="0 0 470.87 293.17">
  <defs>
    <style>
      .cls-1 {
        fill: #4cbbb8;
      }

      .cls-1, .cls-2 {
        stroke-width: 0px;
      }

      .cls-2 {
        fill: none;
      }

      .cls-3 {
        clip-path: url(#clippath);
      }
    </style>
    <clipPath id="clippath">
      <rect class="cls-2" x="18.84" y="14.68" width="433.19" height="279.38" transform="translate(-30.35 61.54) rotate(-14)"/>
    </clipPath>
  </defs>
  <g id="Groupe_3" data-name="Groupe 3">
    <g class="cls-3">
      <g id="Groupe_2" data-name="Groupe 2">
        <g id="Groupe_1" data-name="Groupe 1">
          <path id="Tracé_1" data-name="Tracé 1" class="cls-1" d="m461.83,175.89c.8,45.61-35.53,83.23-81.14,84.02-14.8.28-29.4-3.44-42.26-10.76-15.35,18.63-38.1,29.58-62.23,29.98-29.32.53-56.72-14.54-71.97-39.59-8.29,2.89-17,4.43-25.78,4.57-8.91.16-17.79-1.12-26.29-3.79-13.93,10.57-30.88,16.42-48.36,16.69-45.61.8-83.23-35.53-84.02-81.14-.61-34.68,20.51-66.05,52.87-78.53,8.59-36.88,41.16-63.2,79.02-63.86,13.03-.25,25.94,2.61,37.65,8.33,8.32-11.26,24.76-19.08,43.79-19.41,20.35-.36,38.02,7.95,46.12,20.19,14.89-13.8,34.35-21.62,54.65-21.95,45.61-.8,83.22,35.53,84.02,81.13,0,0,0,0,0,0,.02.85.02,1.7,0,2.54,26.59,14.07,43.42,41.49,43.93,71.56"/>
        </g>
      </g>
    </g>
  </g>
</svg>